<?xml version="1.0" encoding="UTF-8" standalone="no"?>
<!DOCTYPE svg PUBLIC "-//W3C//DTD SVG 1.1//EN"
 "http://www.w3.org/Graphics/SVG/1.1/DTD/svg11.dtd">
<!-- Generated by graphviz version 2.47.1 (0)
 -->
<!-- Pages: 1 -->
<svg width="189pt" height="1578pt"
 viewBox="0.00 0.00 188.99 1578.00" xmlns="http://www.w3.org/2000/svg" xmlns:xlink="http://www.w3.org/1999/xlink">
<g id="graph0" class="graph" transform="scale(1 1) rotate(0) translate(0 1578)">
<!-- user_0&#45;&gt;api_6 -->
<g id="edge1" class="edge">
<title>user_0&#45;&gt;api_6</title>
<path fill="none" stroke="black" d="M28.18,-1397.94C38.21,-1375.44 56.65,-1335.41 75,-1302.5 75.84,-1300.99 76.72,-1299.46 77.63,-1297.92"/>
<polygon fill="black" stroke="black" points="80.71,-1299.6 82.97,-1289.25 74.75,-1295.93 80.71,-1299.6"/>
</g>
<!-- user_0&#45;&gt;api_7 -->
<g id="edge2" class="edge">
<title>user_0&#45;&gt;api_7</title>
<path fill="none" stroke="black" d="M32.88,-1430.09C44.28,-1443.51 61.35,-1463.62 74.47,-1479.08"/>
<polygon fill="black" stroke="black" points="72.16,-1481.77 81.29,-1487.12 77.49,-1477.24 72.16,-1481.77"/>
</g>
<!-- user_0&#45;&gt;api_8 -->
<g id="edge3" class="edge">
<title>user_0&#45;&gt;api_8</title>
<path fill="none" stroke="black" d="M37.8,-1422.37C46.37,-1425.78 56.92,-1429.97 66.52,-1433.78"/>
<polygon fill="black" stroke="black" points="65.48,-1437.14 76.07,-1437.57 68.07,-1430.63 65.48,-1437.14"/>
</g>
<!-- user_0&#45;&gt;api_9 -->
<g id="edge4" class="edge">
<title>user_0&#45;&gt;api_9</title>
<path fill="none" stroke="black" d="M38.17,-1408.72C46.69,-1405.45 57.09,-1401.46 66.56,-1397.83"/>
<polygon fill="black" stroke="black" points="67.9,-1401.06 75.99,-1394.21 65.4,-1394.53 67.9,-1401.06"/>
</g>
<!-- user_0&#45;&gt;api_10 -->
<g id="edge5" class="edge">
<title>user_0&#45;&gt;api_10</title>
<path fill="none" stroke="black" d="M31.17,-1431.17C33.87,-1435.41 36.66,-1440.06 39,-1444.5 58.09,-1480.81 55.9,-1493.19 75,-1529.5 75.8,-1531.02 76.66,-1532.58 77.54,-1534.13"/>
<polygon fill="black" stroke="black" points="74.65,-1536.1 82.83,-1542.83 80.63,-1532.46 74.65,-1536.1"/>
</g>
<!-- user_0&#45;&gt;user_7 -->
<g id="edge6" class="edge">
<title>user_0&#45;&gt;user_7</title>
<path fill="none" stroke="black" d="M32.88,-1401.08C44.21,-1387.89 61.14,-1368.17 74.23,-1352.93"/>
<polygon fill="black" stroke="black" points="77.19,-1354.85 81.05,-1344.99 71.88,-1350.29 77.19,-1354.85"/>
</g>
<!-- user_1&#45;&gt;api_6 -->
<g id="edge7" class="edge">
<title>user_1&#45;&gt;api_6</title>
<path fill="none" stroke="black" d="M30.96,-1175.83C43.15,-1194.88 63.44,-1226.57 77.59,-1248.67"/>
<polygon fill="black" stroke="black" points="74.72,-1250.66 83.06,-1257.2 80.61,-1246.89 74.72,-1250.66"/>
</g>
<!-- user_1&#45;&gt;api_11 -->
<g id="edge8" class="edge">
<title>user_1&#45;&gt;api_11</title>
<path fill="none" stroke="black" d="M30.96,-1143.16C43.15,-1124.12 63.44,-1092.43 77.59,-1070.33"/>
<polygon fill="black" stroke="black" points="80.61,-1072.11 83.06,-1061.8 74.72,-1068.34 80.61,-1072.11"/>
</g>
<!-- user_1&#45;&gt;api_12 -->
<g id="edge9" class="edge">
<title>user_1&#45;&gt;api_12</title>
<path fill="none" stroke="black" d="M26.25,-1141.06C35.14,-1113.49 53.47,-1060.17 75,-1017.5 75.77,-1015.96 76.61,-1014.4 77.48,-1012.84"/>
<polygon fill="black" stroke="black" points="80.57,-1014.49 82.72,-1004.11 74.57,-1010.88 80.57,-1014.49"/>
</g>
<!-- user_1&#45;&gt;api_13 -->
<g id="edge10" class="edge">
<title>user_1&#45;&gt;api_13</title>
<path fill="none" stroke="black" d="M35.27,-1171.03C45.46,-1178.99 59.21,-1189.72 70.78,-1198.76"/>
<polygon fill="black" stroke="black" points="68.71,-1201.58 78.74,-1204.98 73.02,-1196.07 68.71,-1201.58"/>
</g>
<!-- user_1&#45;&gt;user_7 -->
<g id="edge11" class="edge">
<title>user_1&#45;&gt;user_7</title>
<path fill="none" stroke="black" d="M26.25,-1177.93C35.14,-1205.51 53.47,-1258.82 75,-1301.5 75.77,-1303.04 76.61,-1304.6 77.48,-1306.16"/>
<polygon fill="black" stroke="black" points="74.57,-1308.11 82.72,-1314.88 80.57,-1304.51 74.57,-1308.11"/>
</g>
<!-- user_1&#45;&gt;user_9 -->
<g id="edge12" class="edge">
<title>user_1&#45;&gt;user_9</title>
<path fill="none" stroke="black" d="M39.3,-1159.5C47.04,-1159.5 56.2,-1159.5 64.75,-1159.5"/>
<polygon fill="black" stroke="black" points="64.76,-1163 74.76,-1159.5 64.76,-1156 64.76,-1163"/>
</g>
<!-- user_1&#45;&gt;user_10 -->
<g id="edge13" class="edge">
<title>user_1&#45;&gt;user_10</title>
<path fill="none" stroke="black" d="M35.27,-1147.96C45.46,-1140.01 59.21,-1129.27 70.78,-1120.23"/>
<polygon fill="black" stroke="black" points="73.02,-1122.93 78.74,-1114.02 68.71,-1117.41 73.02,-1122.93"/>
</g>
<!-- user_2&#45;&gt;api_2 -->
<g id="edge14" class="edge">
<title>user_2&#45;&gt;api_2</title>
<path fill="none" stroke="black" d="M35.27,-544.03C45.46,-551.99 59.21,-562.72 70.78,-571.76"/>
<polygon fill="black" stroke="black" points="68.71,-574.58 78.74,-577.98 73.02,-569.07 68.71,-574.58"/>
</g>
<!-- user_2&#45;&gt;user_6 -->
<g id="edge15" class="edge">
<title>user_2&#45;&gt;user_6</title>
<path fill="none" stroke="black" d="M39.3,-532.5C47.04,-532.5 56.2,-532.5 64.75,-532.5"/>
<polygon fill="black" stroke="black" points="64.76,-536 74.76,-532.5 64.76,-529 64.76,-536"/>
</g>
<!-- user_2&#45;&gt;user_8 -->
<g id="edge16" class="edge">
<title>user_2&#45;&gt;user_8</title>
<path fill="none" stroke="black" d="M35.27,-520.96C45.46,-513.01 59.21,-502.27 70.78,-493.23"/>
<polygon fill="black" stroke="black" points="73.02,-495.93 78.74,-487.02 68.71,-490.41 73.02,-495.93"/>
</g>
<!-- user_6&#45;&gt;api_5 -->
<g id="edge24" class="edge">
<title>user_6&#45;&gt;api_5</title>
<path fill="none" stroke="black" d="M106.67,-517.07C109.37,-512.83 112.03,-508.12 113.99,-503.5 142.85,-435.48 158.18,-349.28 164.66,-304.89"/>
<polygon fill="black" stroke="black" points="168.16,-305.18 166.09,-294.79 161.23,-304.2 168.16,-305.18"/>
</g>
<!-- user_8&#45;&gt;api_5 -->
<g id="edge25" class="edge">
<title>user_8&#45;&gt;api_5</title>
<path fill="none" stroke="black" d="M106.44,-459.97C109.14,-455.72 111.86,-451.04 113.99,-446.5 136.46,-398.55 153.11,-338.92 161.77,-304.23"/>
<polygon fill="black" stroke="black" points="165.22,-304.86 164.2,-294.31 158.42,-303.19 165.22,-304.86"/>
</g>
<!-- user_3&#45;&gt;api_3 -->
<g id="edge17" class="edge">
<title>user_3&#45;&gt;api_3</title>
<path fill="none" stroke="black" d="M30.96,-776.83C43.15,-795.88 63.44,-827.57 77.59,-849.67"/>
<polygon fill="black" stroke="black" points="74.72,-851.66 83.06,-858.2 80.61,-847.89 74.72,-851.66"/>
</g>
<!-- user_3&#45;&gt;api_14 -->
<g id="edge18" class="edge">
<title>user_3&#45;&gt;api_14</title>
<path fill="none" stroke="black" d="M35.27,-772.03C45.46,-779.99 59.21,-790.72 70.78,-799.76"/>
<polygon fill="black" stroke="black" points="68.71,-802.58 78.74,-805.98 73.02,-797.07 68.71,-802.58"/>
</g>
<!-- user_3&#45;&gt;api_15 -->
<g id="edge19" class="edge">
<title>user_3&#45;&gt;api_15</title>
<path fill="none" stroke="black" d="M39.3,-760.5C47.04,-760.5 56.2,-760.5 64.75,-760.5"/>
<polygon fill="black" stroke="black" points="64.76,-764 74.76,-760.5 64.76,-757 64.76,-764"/>
</g>
<!-- user_3&#45;&gt;api_16 -->
<g id="edge20" class="edge">
<title>user_3&#45;&gt;api_16</title>
<path fill="none" stroke="black" d="M35.27,-748.96C45.46,-741.01 59.21,-730.27 70.78,-721.23"/>
<polygon fill="black" stroke="black" points="73.02,-723.93 78.74,-715.02 68.71,-718.41 73.02,-723.93"/>
</g>
<!-- user_3&#45;&gt;api_17 -->
<g id="edge21" class="edge">
<title>user_3&#45;&gt;api_17</title>
<path fill="none" stroke="black" d="M30.96,-744.16C43.15,-725.12 63.44,-693.43 77.59,-671.33"/>
<polygon fill="black" stroke="black" points="80.61,-673.11 83.06,-662.8 74.72,-669.34 80.61,-673.11"/>
</g>
<!-- user_4&#45;&gt;api_4 -->
<g id="edge22" class="edge">
<title>user_4&#45;&gt;api_4</title>
<path fill="none" stroke="black" d="M39.3,-931.5C47.04,-931.5 56.2,-931.5 64.75,-931.5"/>
<polygon fill="black" stroke="black" points="64.76,-935 74.76,-931.5 64.76,-928 64.76,-935"/>
</g>
<!-- user_5&#45;&gt;api_5 -->
<g id="edge23" class="edge">
<title>user_5&#45;&gt;api_5</title>
<path fill="none" stroke="black" d="M106.03,-402.76C108.73,-398.51 111.56,-393.88 113.99,-389.5 130.11,-360.47 146.22,-325.91 156.7,-302.51"/>
<polygon fill="black" stroke="black" points="159.97,-303.77 160.83,-293.21 153.57,-300.93 159.97,-303.77"/>
</g>
<!-- user_11&#45;&gt;api_5 -->
<g id="edge26" class="edge">
<title>user_11&#45;&gt;api_5</title>
<path fill="none" stroke="black" d="M107.88,-346.91C119.27,-333.49 136.34,-313.37 149.47,-297.91"/>
<polygon fill="black" stroke="black" points="152.49,-299.76 156.29,-289.87 147.15,-295.23 152.49,-299.76"/>
</g>
<!-- user_12&#45;&gt;api_5 -->
<g id="edge27" class="edge">
<title>user_12&#45;&gt;api_5</title>
<path fill="none" stroke="black" d="M112.79,-297.63C121.37,-294.22 131.92,-290.03 141.52,-286.21"/>
<polygon fill="black" stroke="black" points="143.06,-289.37 151.06,-282.42 140.48,-282.86 143.06,-289.37"/>
</g>
<!-- user_13&#45;&gt;api_5 -->
<g id="edge28" class="edge">
<title>user_13&#45;&gt;api_5</title>
<path fill="none" stroke="black" d="M113.17,-254.28C121.68,-257.54 132.09,-261.53 141.56,-265.17"/>
<polygon fill="black" stroke="black" points="140.39,-268.47 150.98,-268.78 142.9,-261.93 140.39,-268.47"/>
</g>
<!-- user_14&#45;&gt;api_5 -->
<g id="edge29" class="edge">
<title>user_14&#45;&gt;api_5</title>
<path fill="none" stroke="black" d="M107.88,-204.92C119.2,-218.11 136.14,-237.82 149.23,-253.07"/>
<polygon fill="black" stroke="black" points="146.88,-255.7 156.05,-261.01 152.19,-251.14 146.88,-255.7"/>
</g>
<!-- user_15&#45;&gt;api_5 -->
<g id="edge30" class="edge">
<title>user_15&#45;&gt;api_5</title>
<path fill="none" stroke="black" d="M106.02,-149.25C108.72,-153.49 111.55,-158.12 113.99,-162.5 130.05,-191.3 146.17,-225.55 156.67,-248.73"/>
<polygon fill="black" stroke="black" points="153.52,-250.26 160.81,-257.94 159.9,-247.39 153.52,-250.26"/>
</g>
<!-- user_16&#45;&gt;api_5 -->
<g id="edge31" class="edge">
<title>user_16&#45;&gt;api_5</title>
<path fill="none" stroke="black" d="M106.44,-92.03C109.14,-96.27 111.86,-100.96 113.99,-105.5 136.32,-153.04 152.97,-212.14 161.67,-246.66"/>
<polygon fill="black" stroke="black" points="158.32,-247.67 164.12,-256.54 165.11,-245.99 158.32,-247.67"/>
</g>
<!-- user_17&#45;&gt;api_5 -->
<g id="edge32" class="edge">
<title>user_17&#45;&gt;api_5</title>
<path fill="none" stroke="black" d="M106.67,-34.93C109.37,-39.17 112.03,-43.88 113.99,-48.5 142.76,-116.22 158.13,-202.04 164.64,-246.24"/>
<polygon fill="black" stroke="black" points="161.2,-246.88 166.07,-256.29 168.13,-245.9 161.2,-246.88"/>
</g>
<!-- api_0 -->
<g id="node1" class="node">
<title>api_0</title>
<ellipse fill="#deb618" stroke="black" cx="19.5" cy="-418.5" rx="19.5" ry="19.5"/>
<text text-anchor="middle" x="19.5" y="-414.8" font-family="Times" font-size="14.00">00</text>
</g>
<!-- api_1 -->
<g id="node2" class="node">
<title>api_1</title>
<ellipse fill="#deb618" stroke="black" cx="19.5" cy="-475.5" rx="19.5" ry="19.5"/>
<text text-anchor="middle" x="19.5" y="-471.8" font-family="Times" font-size="14.00">01</text>
</g>
<!-- api_2 -->
<g id="node3" class="node">
<title>api_2</title>
<ellipse fill="#deb618" stroke="black" cx="94.49" cy="-589.5" rx="19.5" ry="19.5"/>
<text text-anchor="middle" x="94.49" y="-585.8" font-family="Times" font-size="14.00">02</text>
</g>
<!-- api_3 -->
<g id="node4" class="node">
<title>api_3</title>
<ellipse fill="#deb618" stroke="black" cx="94.49" cy="-874.5" rx="19.5" ry="19.5"/>
<text text-anchor="middle" x="94.49" y="-870.8" font-family="Times" font-size="14.00">03</text>
</g>
<!-- api_4 -->
<g id="node5" class="node">
<title>api_4</title>
<ellipse fill="#deb618" stroke="black" cx="94.49" cy="-931.5" rx="19.5" ry="19.5"/>
<text text-anchor="middle" x="94.49" y="-927.8" font-family="Times" font-size="14.00">04</text>
</g>
<!-- api_5 -->
<g id="node6" class="node">
<title>api_5</title>
<ellipse fill="#deb618" stroke="black" cx="169.49" cy="-275.5" rx="19.5" ry="19.5"/>
<text text-anchor="middle" x="169.49" y="-271.8" font-family="Times" font-size="14.00">05</text>
</g>
<!-- api_6 -->
<g id="node7" class="node">
<title>api_6</title>
<ellipse fill="#deb618" stroke="black" cx="94.49" cy="-1273.5" rx="19.5" ry="19.5"/>
<text text-anchor="middle" x="94.49" y="-1269.8" font-family="Times" font-size="14.00">06</text>
</g>
<!-- api_7 -->
<g id="node8" class="node">
<title>api_7</title>
<ellipse fill="#deb618" stroke="black" cx="94.49" cy="-1501.5" rx="19.5" ry="19.5"/>
<text text-anchor="middle" x="94.49" y="-1497.8" font-family="Times" font-size="14.00">07</text>
</g>
<!-- api_8 -->
<g id="node9" class="node">
<title>api_8</title>
<ellipse fill="#deb618" stroke="black" cx="94.49" cy="-1444.5" rx="19.5" ry="19.5"/>
<text text-anchor="middle" x="94.49" y="-1440.8" font-family="Times" font-size="14.00">08</text>
</g>
<!-- api_9 -->
<g id="node10" class="node">
<title>api_9</title>
<ellipse fill="#deb618" stroke="black" cx="94.49" cy="-1387.5" rx="19.5" ry="19.5"/>
<text text-anchor="middle" x="94.49" y="-1383.8" font-family="Times" font-size="14.00">09</text>
</g>
<!-- api_10 -->
<g id="node11" class="node">
<title>api_10</title>
<ellipse fill="#deb618" stroke="black" cx="94.49" cy="-1558.5" rx="19.5" ry="19.5"/>
<text text-anchor="middle" x="94.49" y="-1554.8" font-family="Times" font-size="14.00">10</text>
</g>
<!-- api_11 -->
<g id="node12" class="node">
<title>api_11</title>
<ellipse fill="#deb618" stroke="black" cx="94.49" cy="-1045.5" rx="19.5" ry="19.5"/>
<text text-anchor="middle" x="94.49" y="-1041.8" font-family="Times" font-size="14.00">11</text>
</g>
<!-- api_12 -->
<g id="node13" class="node">
<title>api_12</title>
<ellipse fill="#deb618" stroke="black" cx="94.49" cy="-988.5" rx="19.5" ry="19.5"/>
<text text-anchor="middle" x="94.49" y="-984.8" font-family="Times" font-size="14.00">12</text>
</g>
<!-- api_13 -->
<g id="node14" class="node">
<title>api_13</title>
<ellipse fill="#deb618" stroke="black" cx="94.49" cy="-1216.5" rx="19.5" ry="19.5"/>
<text text-anchor="middle" x="94.49" y="-1212.8" font-family="Times" font-size="14.00">13</text>
</g>
<!-- api_14 -->
<g id="node15" class="node">
<title>api_14</title>
<ellipse fill="#deb618" stroke="black" cx="94.49" cy="-817.5" rx="19.5" ry="19.5"/>
<text text-anchor="middle" x="94.49" y="-813.8" font-family="Times" font-size="14.00">14</text>
</g>
<!-- api_15 -->
<g id="node16" class="node">
<title>api_15</title>
<ellipse fill="#deb618" stroke="black" cx="94.49" cy="-760.5" rx="19.5" ry="19.5"/>
<text text-anchor="middle" x="94.49" y="-756.8" font-family="Times" font-size="14.00">15</text>
</g>
<!-- api_16 -->
<g id="node17" class="node">
<title>api_16</title>
<ellipse fill="#deb618" stroke="black" cx="94.49" cy="-703.5" rx="19.5" ry="19.5"/>
<text text-anchor="middle" x="94.49" y="-699.8" font-family="Times" font-size="14.00">16</text>
</g>
<!-- api_17 -->
<g id="node18" class="node">
<title>api_17</title>
<ellipse fill="#deb618" stroke="black" cx="94.49" cy="-646.5" rx="19.5" ry="19.5"/>
<text text-anchor="middle" x="94.49" y="-642.8" font-family="Times" font-size="14.00">17</text>
</g>
<!-- api_18 -->
<g id="node19" class="node">
<title>api_18</title>
<ellipse fill="#deb618" stroke="black" cx="19.5" cy="-1472.5" rx="19.5" ry="19.5"/>
<text text-anchor="middle" x="19.5" y="-1468.8" font-family="Times" font-size="14.00">18</text>
</g>
<!-- api_19 -->
<g id="node20" class="node">
<title>api_19</title>
<ellipse fill="#deb618" stroke="black" cx="19.5" cy="-1529.5" rx="19.5" ry="19.5"/>
<text text-anchor="middle" x="19.5" y="-1525.8" font-family="Times" font-size="14.00">19</text>
</g>
<!-- user_0 -->
<g id="node21" class="node">
<title>user_0</title>
<ellipse fill="#18b0de" stroke="black" cx="19.5" cy="-1415.5" rx="19.5" ry="19.5"/>
<text text-anchor="middle" x="19.5" y="-1411.8" font-family="Times" font-size="14.00">20</text>
</g>
<!-- user_7 -->
<g id="node22" class="node">
<title>user_7</title>
<ellipse fill="#18b0de" stroke="black" cx="94.49" cy="-1330.5" rx="19.5" ry="19.5"/>
<text text-anchor="middle" x="94.49" y="-1326.8" font-family="Times" font-size="14.00">21</text>
</g>
<!-- user_1 -->
<g id="node23" class="node">
<title>user_1</title>
<ellipse fill="#18b0de" stroke="black" cx="19.5" cy="-1159.5" rx="19.5" ry="19.5"/>
<text text-anchor="middle" x="19.5" y="-1155.8" font-family="Times" font-size="14.00">22</text>
</g>
<!-- user_9 -->
<g id="node24" class="node">
<title>user_9</title>
<ellipse fill="#18b0de" stroke="black" cx="94.49" cy="-1159.5" rx="19.5" ry="19.5"/>
<text text-anchor="middle" x="94.49" y="-1155.8" font-family="Times" font-size="14.00">22</text>
</g>
<!-- user_10 -->
<g id="node25" class="node">
<title>user_10</title>
<ellipse fill="#18b0de" stroke="black" cx="94.49" cy="-1102.5" rx="19.5" ry="19.5"/>
<text text-anchor="middle" x="94.49" y="-1098.8" font-family="Times" font-size="14.00">23</text>
</g>
<!-- user_2 -->
<g id="node26" class="node">
<title>user_2</title>
<ellipse fill="#18b0de" stroke="black" cx="19.5" cy="-532.5" rx="19.5" ry="19.5"/>
<text text-anchor="middle" x="19.5" y="-528.8" font-family="Times" font-size="14.00">24</text>
</g>
<!-- user_6 -->
<g id="node27" class="node">
<title>user_6</title>
<ellipse fill="#18b0de" stroke="black" cx="94.49" cy="-532.5" rx="19.5" ry="19.5"/>
<text text-anchor="middle" x="94.49" y="-528.8" font-family="Times" font-size="14.00">25</text>
</g>
<!-- user_8 -->
<g id="node28" class="node">
<title>user_8</title>
<ellipse fill="#18b0de" stroke="black" cx="94.49" cy="-475.5" rx="19.5" ry="19.5"/>
<text text-anchor="middle" x="94.49" y="-471.8" font-family="Times" font-size="14.00">26</text>
</g>
<!-- user_3 -->
<g id="node29" class="node">
<title>user_3</title>
<ellipse fill="#18b0de" stroke="black" cx="19.5" cy="-760.5" rx="19.5" ry="19.5"/>
<text text-anchor="middle" x="19.5" y="-756.8" font-family="Times" font-size="14.00">27</text>
</g>
<!-- user_4 -->
<g id="node30" class="node">
<title>user_4</title>
<ellipse fill="#18b0de" stroke="black" cx="19.5" cy="-931.5" rx="19.5" ry="19.5"/>
<text text-anchor="middle" x="19.5" y="-927.8" font-family="Times" font-size="14.00">28</text>
</g>
<!-- user_5 -->
<g id="node31" class="node">
<title>user_5</title>
<ellipse fill="#18b0de" stroke="black" cx="94.49" cy="-418.5" rx="19.5" ry="19.5"/>
<text text-anchor="middle" x="94.49" y="-414.8" font-family="Times" font-size="14.00">29</text>
</g>
<!-- user_11 -->
<g id="node32" class="node">
<title>user_11</title>
<ellipse fill="#18b0de" stroke="black" cx="94.49" cy="-361.5" rx="19.5" ry="19.5"/>
<text text-anchor="middle" x="94.49" y="-357.8" font-family="Times" font-size="14.00">30</text>
</g>
<!-- user_12 -->
<g id="node33" class="node">
<title>user_12</title>
<ellipse fill="#18b0de" stroke="black" cx="94.49" cy="-304.5" rx="19.5" ry="19.5"/>
<text text-anchor="middle" x="94.49" y="-300.8" font-family="Times" font-size="14.00">31</text>
</g>
<!-- user_13 -->
<g id="node34" class="node">
<title>user_13</title>
<ellipse fill="#18b0de" stroke="black" cx="94.49" cy="-247.5" rx="19.5" ry="19.5"/>
<text text-anchor="middle" x="94.49" y="-243.8" font-family="Times" font-size="14.00">32</text>
</g>
<!-- user_14 -->
<g id="node35" class="node">
<title>user_14</title>
<ellipse fill="#18b0de" stroke="black" cx="94.49" cy="-190.5" rx="19.5" ry="19.5"/>
<text text-anchor="middle" x="94.49" y="-186.8" font-family="Times" font-size="14.00">33</text>
</g>
<!-- user_15 -->
<g id="node36" class="node">
<title>user_15</title>
<ellipse fill="#18b0de" stroke="black" cx="94.49" cy="-133.5" rx="19.5" ry="19.5"/>
<text text-anchor="middle" x="94.49" y="-129.8" font-family="Times" font-size="14.00">34</text>
</g>
<!-- user_16 -->
<g id="node37" class="node">
<title>user_16</title>
<ellipse fill="#18b0de" stroke="black" cx="94.49" cy="-76.5" rx="19.5" ry="19.5"/>
<text text-anchor="middle" x="94.49" y="-72.8" font-family="Times" font-size="14.00">35</text>
</g>
<!-- user_17 -->
<g id="node38" class="node">
<title>user_17</title>
<ellipse fill="#18b0de" stroke="black" cx="94.49" cy="-19.5" rx="19.5" ry="19.5"/>
<text text-anchor="middle" x="94.49" y="-15.8" font-family="Times" font-size="14.00">36</text>
</g>
</g>
</svg>
